<?xml version="1.0" encoding="utf-8"?>
<!-- Generator: Adobe Illustrator 19.0.0, SVG Export Plug-In . SVG Version: 6.00 Build 0)  -->
<svg version="1.1" id="Layer_1" xmlns="http://www.w3.org/2000/svg" xmlns:xlink="http://www.w3.org/1999/xlink" x="0px" y="0px"
	 viewBox="0 0 800 200" style="enable-background:new 0 0 800 200;" xml:space="preserve">
<style type="text/css">
	.st0{fill:#907B5C;}
	.st1{fill:#FFFFFF;}
</style>
<path id="XMLID_3_" class="st0" d="M722.6,75.1c-19.4-23-43.3-27.1-43.3-27.1h-2.6H127.2h-1.9c0,0-23.9,4.1-43.3,27.1
	C69.9,89.4,62.6,102.4,63,102.4c-0.5,0,6.9,12.7,18.9,27c19.4,23,43.3,26.6,43.3,26.6h1.9h549.5h2.6c0,0,23.9-3.5,43.3-26.5
	c12.1-14.3,19.4-27.2,18.9-27.2C742,102.3,734.7,89.4,722.6,75.1z"/>
<path id="XMLID_22_" class="st1" d="M729.8,103.2c-0.2-0.9-7.8-10.8-17.1-21.9C697,62.5,677.6,59,677.6,59h-2.1H436.3h-19.7h-1.8
	c0,0,0.2-0.3,0.2-0.1v0V59c0,1.7-4.4,13.9-9.1,23.5c-5.4,11-11.6,19.3-11.6,19.3s-0.4,0.3-0.5,0.9c0,0.3-0.1,0.5,0,0.6l0,0l0,0.5
	l0,0.5l0,0c0,0.2,0,0.4,0,0.6c0.1,0.5,0.5,0.8,0.5,0.8s6.2,7.7,11.6,18.1c4.7,9,9.1,20.5,9.1,22.1v0.1v0.9h2h19.3h239.2h2
	c0,0,0,0,0.1,0c0.7-0.1,19.7-2.8,35.1-21.3c9.3-11.1,16.8-20.9,17.1-21.8C729.8,103.8,729.8,103.3,729.8,103.2z"/>
<circle id="XMLID_1_" class="st0" cx="13.9" cy="104.1" r="9.3"/>
<circle id="XMLID_5_" class="st0" cx="789.4" cy="104.1" r="9.3"/>
<g id="XMLID_14_">
	<path id="XMLID_11_" class="st0" d="M444.3,66.4c-2.6,13.5-7.5,25.8-16.6,36.4c9.1,10.5,14,22.8,16.6,36.4c-1.7,0-3.2,0-4.6,0
		c-0.9-3.3-1.7-6.7-2.7-10c-3-9.6-7.8-18.3-14.9-25.6c-0.5-0.5-0.5-1,0-1.6c8-8.2,13-18.1,16-29c0.6-2.2,1.1-4.3,1.6-6.6
		C441.1,66.4,442.6,66.4,444.3,66.4z"/>
	<path id="XMLID_15_" class="st0" d="M466.8,101.7c-0.5,0.6-0.8,1.2-1.3,1.5c-6,3.6-9.8,8.7-10.8,15.7c-0.2,1.2-0.8,1.8-2.1,1.8
		c-1.3,0-1.8-0.6-2-1.9c-0.7-4.6-2.5-8.7-5.9-11.8c-1.6-1.4-3.4-2.7-5.1-4c-1.1-0.8-1-2.1,0.1-3c4.5-3.1,8-7.1,9.7-12.4
		c0.6-1.8,0.9-3.6,1.2-5.5c0.2-1,0.9-1.7,2-1.7c1.2,0,2,0.7,2.1,1.8c0.6,5.5,2.6,10.3,6.6,14.2c1.4,1.3,3,2.5,4.4,3.8
		C466,100.5,466.3,101,466.8,101.7z M459.9,101.7c-3.4-2.3-5.5-5.5-7.3-9c-1.9,3.7-4,7-7.5,9.1c3.6,1.7,5.6,4.8,7.6,8.1
		C454.5,106.5,456.7,103.6,459.9,101.7z"/>
</g>
<g id="XMLID_16_">
	<path id="XMLID_20_" class="st1" d="M125.3,68.5c-2.5,13.1-7.3,25.1-16.1,35.4c8.8,10.2,13.6,22.2,16.1,35.3c-1.6,0-3.1,0-4.5,0
		c-0.9-3.2-1.7-6.5-2.7-9.7c-2.9-9.4-7.6-17.8-14.5-24.9c-0.5-0.5-0.5-1,0-1.5c7.8-8,12.6-17.6,15.5-28.2c0.6-2.1,1-4.2,1.6-6.4
		C122.2,68.5,123.7,68.5,125.3,68.5z"/>
	<path id="XMLID_17_" class="st1" d="M147.1,102.7c-0.5,0.6-0.8,1.2-1.3,1.4c-5.8,3.5-9.5,8.4-10.5,15.3c-0.2,1.2-0.8,1.8-2,1.8
		c-1.2,0-1.8-0.6-2-1.8c-0.6-4.5-2.4-8.4-5.8-11.5c-1.5-1.4-3.3-2.6-4.9-3.9c-1.1-0.8-1-2.1,0.1-2.9c4.4-3,7.8-6.9,9.4-12.1
		c0.5-1.7,0.8-3.5,1.2-5.3c0.2-1,0.8-1.7,1.9-1.7c1.1,0,1.9,0.7,2,1.7c0.6,5.3,2.5,10,6.4,13.8c1.4,1.3,2.9,2.4,4.3,3.7
		C146.4,101.6,146.7,102.1,147.1,102.7z M140.5,102.7c-3.3-2.2-5.4-5.3-7.1-8.8c-1.9,3.6-3.9,6.8-7.3,8.8c3.5,1.7,5.4,4.7,7.4,7.9
		C135.1,107.4,137.3,104.6,140.5,102.7z"/>
</g>
</svg>
