<?xml version="1.0" encoding="utf-8"?>
<!-- Generator: Adobe Illustrator 19.0.0, SVG Export Plug-In . SVG Version: 6.00 Build 0)  -->
<svg version="1.1" id="vorlagepfeilgroß_xA0_Image_1_"
	 xmlns="http://www.w3.org/2000/svg" xmlns:xlink="http://www.w3.org/1999/xlink" x="0px" y="0px" viewBox="0 0 169.4 364.8"
	 style="enable-background:new 0 0 169.4 364.8;" xml:space="preserve">
<style type="text/css">
	.st0{fill:#907B5C;}
</style>
<g>
	<path class="st0" d="M115.3,181.6c-2.5-2.6-5.1-5.1-7.5-7.8c-8.5-9.6-15.5-20.2-21.6-31.5C78.7,128.5,74,113.6,71,98.2
		c-3.3-17.2-4.1-34.6-3-52.1c0.2-3.9,0.8-7.7,1.2-11.6c0.2-1.5,1-2.7,2.4-3.3c1.9-0.7,3.6-1.7,5.9-1c3,1,4.5,3.9,4.2,6.9
		c-1.8,14.6-1.8,29.2-0.3,43.8c1.7,16,5.2,31.5,11.6,46.2c4.1,9.6,9.6,18.4,15.5,27c4.4,6.4,9.3,12.4,15.2,17.6
		c1.3,1.1,3,1.9,4.7,2.4c3.2,0.8,5.9,3.1,6.2,6.2c0.2,1.9-0.1,3.9-1.3,5.6c-1.2,1.7-2.8,2.6-4.7,3c-2,0.4-3.7,1.2-5.1,2.6
		c-6.3,5.8-11.6,12.5-16.4,19.5c-5.7,8.4-10.9,17.1-14.8,26.6C87.9,248,85,258.8,83,269.9c-2.8,15.7-3.3,31.6-2.3,47.5
		c0.2,3,0.6,6,1,9.1c0.4,3.1-2.2,6.8-5.3,6.8c-2.4,0-4.9-0.6-6.5-2.8c-0.4-0.6-0.6-1.5-0.7-2.2c-1.4-9.8-1.7-19.6-1.5-29.4
		c0.4-19.4,3.2-38.4,9.4-56.8c4.7-13.9,11.7-26.6,20-38.7c5.3-7.7,11.2-15,18.1-21.3C115.2,181.8,115.3,181.7,115.3,181.6z"/>
</g>
</svg>
