<?xml version="1.0" encoding="utf-8"?>
<!-- Generator: Adobe Illustrator 19.0.0, SVG Export Plug-In . SVG Version: 6.00 Build 0)  -->
<svg version="1.1" id="vorlagepfeilgroß_xA0_Image_1_"
	 xmlns="http://www.w3.org/2000/svg" xmlns:xlink="http://www.w3.org/1999/xlink" x="0px" y="0px" viewBox="69 -171.1 169.4 364.8"
	 style="enable-background:new 69 -171.1 169.4 364.8;" xml:space="preserve">
<style type="text/css">
	.st0{fill:#907B5C;}
</style>
<g>
	<path class="st0" d="M151.6,10.8c-6.9,6.3-12.8,13.6-18.1,21.3c-8.3,12.1-15.3,24.8-20,38.7c-6.2,18.4-9,37.4-9.4,56.8
		c-0.2,9.8,0.1,19.6,1.5,29.4c0.1,0.7,0.3,1.6,0.7,2.2c1.6,2.2,4.1,2.8,6.5,2.8c3.1,0,5.7-3.7,5.3-6.8s-0.8-6.1-1-9.1
		c-1-15.9-0.5-31.8,2.3-47.5c2-11,4.9-21.8,9.2-32.2c3.9-9.5,9.1-18.2,14.8-26.6c4.8-7,10.1-13.7,16.4-19.5c1.4-1.4,3.1-2.2,5.1-2.6
		c1.9-0.4,3.5-1.3,4.7-3c1.2-1.7,1.5-3.7,1.3-5.6c-0.3-3.1-3-5.4-6.2-6.2c-1.7-0.5-3.4-1.3-4.7-2.4c-5.9-5.2-10.8-11.2-15.2-17.6
		c-5.9-8.6-11.4-17.4-15.5-27c-6.4-14.7-9.9-30.2-11.6-46.2c-1.5-14.6-1.5-29.2,0.3-43.8c0.3-3-1.2-5.9-4.2-6.9
		c-2.3-0.7-4,0.3-5.9,1c-1.4,0.6-2.2,1.8-2.4,3.3c-0.4,3.9-1,7.7-1.2,11.6c-1.1,17.5-0.3,34.9,3,52.1c2.9,15.5,7.7,30.3,15.2,44.2
		c6.1,11.3,13.1,21.9,21.6,31.5c2.4,2.7,5,5.2,7.5,7.8C151.6,10.6,151.5,10.7,151.6,10.8z"/>
</g>
</svg>
