<?xml version="1.0" encoding="utf-8"?>
<!-- Generator: Adobe Illustrator 19.0.0, SVG Export Plug-In . SVG Version: 6.00 Build 0)  -->
<svg version="1.1" xmlns="http://www.w3.org/2000/svg" xmlns:xlink="http://www.w3.org/1999/xlink" x="0px" y="0px"
	 viewBox="46 -55 123.4 132.7" style="enable-background:new 46 -55 123.4 132.7;" xml:space="preserve">
<style type="text/css">
	.st0{fill:#907B5C;}
</style>
<g id="Layer_2">
</g>
<g id="vorlagepfeil_xA0_Image_1_">
	<g>
		<path class="st0" d="M94.9-27.1c0.6,2.5,1.1,5,1.8,7.4c3.4,12.3,9,23.5,18,32.7c0.6,0.6,0.6,1.2,0,1.8c-8,8.2-13.4,17.9-16.8,28.9
			c-1.2,3.7-2.1,7.4-3.1,11.2c-1.6,0-3.3,0-5.2,0c2.9-15.3,8.5-29.2,18.7-41C98,2,92.5-11.9,89.6-27.1
			C91.5-27.1,93.2-27.1,94.9-27.1z"/>
		<path class="st0" d="M65.7,11c1.7-1.5,3.4-2.8,5-4.3c4.5-4.4,6.7-9.9,7.4-16c0.1-1.2,1-2,2.3-2c1.2,0.1,2,0.8,2.2,2
			c0.3,2.1,0.7,4.2,1.3,6.2c1.9,6,5.8,10.5,10.9,14c1.4,0.9,1.4,2.4,0.2,3.3c-1.9,1.5-3.9,2.9-5.7,4.5c-3.9,3.5-5.9,8.1-6.7,13.3
			c-0.2,1.4-0.9,2.1-2.3,2.1S78.2,33.4,78,32c-1.1-7.9-5.5-13.6-12.2-17.7c-0.5-0.4-0.9-1-1.5-1.7C64.8,11.9,65.1,11.3,65.7,11z
			 M80.3,21.7c2.2-3.7,4.5-7.1,8.5-9.1c-4-2.3-6.3-6.1-8.5-10.2c-2.1,4-4.4,7.6-8.3,10.2C75.7,14.8,78.2,18,80.3,21.7z"/>
	</g>
</g>
</svg>
