<?xml version="1.0" encoding="utf-8"?>
<!-- Generator: Adobe Illustrator 19.0.0, SVG Export Plug-In . SVG Version: 6.00 Build 0)  -->
<svg version="1.1" id="Layer_1" xmlns="http://www.w3.org/2000/svg" xmlns:xlink="http://www.w3.org/1999/xlink" x="0px" y="0px"
	 viewBox="0 0 800 150" style="enable-background:new 0 0 800 150;" xml:space="preserve">
<style type="text/css">
	.st0{fill:#907B5C;}
</style>
<path id="XMLID_3_" class="st0" d="M714.1,47.9c-19-22.5-42.5-25.9-42.5-25.9h-2.5H130.8h-1.9c0,0-23.4,3.4-42.5,25.9
	c-11.8,14-19,26.4-18.6,26.4c-0.5,0,6.7,12.6,18.6,26.6c19,22.5,42.5,26.1,42.5,26.1h1.9h538.3h2.5c0,0,23.4-3.7,42.5-26.2
	c11.8-14,19-26.4,18.6-26.4C733.1,74.3,725.9,61.9,714.1,47.9z"/>
<circle id="XMLID_1_" class="st0" cx="19.8" cy="75.7" r="9.1"/>
<circle id="XMLID_5_" class="st0" cx="779.5" cy="75.7" r="9.1"/>
</svg>
