<?xml version="1.0" encoding="utf-8"?>
<!-- Generator: Adobe Illustrator 19.0.0, SVG Export Plug-In . SVG Version: 6.00 Build 0)  -->
<svg version="1.1" id="vorlagepfeil_xA0_Image_1_" xmlns="http://www.w3.org/2000/svg" xmlns:xlink="http://www.w3.org/1999/xlink"
	 x="0px" y="0px" viewBox="0 0 123.4 132.7" style="enable-background:new 0 0 123.4 132.7;" xml:space="preserve">
<style type="text/css">
	.st0{fill:#907B5C;}
</style>
<g>
	<path class="st0" d="M79.8,27.9c-2.9,15.2-8.4,29.1-18.7,41c10.2,11.8,15.8,25.7,18.7,41c-1.9,0-3.6,0-5.2,0
		c-1-3.8-1.9-7.5-3.1-11.2C68.1,87.7,62.7,78,54.7,69.8c-0.6-0.6-0.6-1.2,0-1.8c9-9.2,14.6-20.4,18-32.7c0.7-2.4,1.2-4.9,1.8-7.4
		C76.2,27.9,77.9,27.9,79.8,27.9z"/>
	<path class="st0" d="M105.1,67.6c-0.6,0.7-1,1.3-1.5,1.7c-6.7,4.1-11.1,9.8-12.2,17.7c-0.2,1.4-0.9,2.1-2.3,2.1
		c-1.4,0-2.1-0.7-2.3-2.1c-0.8-5.2-2.8-9.8-6.7-13.3c-1.8-1.6-3.8-3-5.7-4.5c-1.2-0.9-1.2-2.4,0.2-3.3c5.1-3.5,9-8,10.9-14
		c0.6-2,1-4.1,1.3-6.2c0.2-1.2,1-1.9,2.2-2c1.3,0,2.2,0.8,2.3,2c0.7,6.1,2.9,11.6,7.4,16c1.6,1.5,3.3,2.8,5,4.3
		C104.3,66.3,104.6,66.9,105.1,67.6z M97.4,67.6c-3.9-2.6-6.2-6.2-8.3-10.2c-2.2,4.1-4.5,7.9-8.5,10.2c4,2,6.3,5.4,8.5,9.1
		C91.2,73,93.7,69.8,97.4,67.6z"/>
</g>
</svg>
