<?xml version="1.0" encoding="utf-8"?>
<!-- Generator: Adobe Illustrator 19.0.0, SVG Export Plug-In . SVG Version: 6.00 Build 0)  -->
<svg version="1.1" id="vorlagepfeilgroß_xA0_Image_1_"
	 xmlns="http://www.w3.org/2000/svg" xmlns:xlink="http://www.w3.org/1999/xlink" x="0px" y="0px" viewBox="0 0 169.4 364.8"
	 style="enable-background:new 0 0 169.4 364.8;" xml:space="preserve">
<style type="text/css">
	.st0{fill:#907B5C;}
</style>
<g>
	<path class="st0" d="M86.8,181.6c2.5-2.6,5.1-5.1,7.5-7.8c8.5-9.6,15.5-20.2,21.6-31.5c7.5-13.9,12.3-28.7,15.2-44.2
		c3.3-17.2,4.1-34.6,3-52.1c-0.2-3.9-0.8-7.7-1.2-11.6c-0.2-1.5-1-2.7-2.4-3.3c-1.9-0.7-3.6-1.7-5.9-1c-3,1-4.5,3.9-4.2,6.9
		c1.8,14.6,1.8,29.2,0.3,43.8c-1.7,16-5.2,31.5-11.6,46.2c-4.1,9.6-9.6,18.4-15.5,27c-4.4,6.4-9.3,12.4-15.2,17.6
		c-1.3,1.1-3,1.9-4.7,2.4c-3.2,0.8-5.9,3.1-6.2,6.2c-0.2,1.9,0.1,3.9,1.3,5.6c1.2,1.7,2.8,2.6,4.7,3c2,0.4,3.7,1.2,5.1,2.6
		c6.3,5.8,11.6,12.5,16.4,19.5c5.7,8.4,10.9,17.1,14.8,26.6c4.3,10.4,7.2,21.2,9.2,32.2c2.8,15.7,3.3,31.6,2.3,47.5
		c-0.2,3-0.6,6-1,9.1c-0.4,3.1,2.2,6.8,5.3,6.8c2.4,0,4.9-0.6,6.5-2.8c0.4-0.6,0.6-1.5,0.7-2.2c1.4-9.8,1.7-19.6,1.5-29.4
		c-0.4-19.4-3.2-38.4-9.4-56.8c-4.7-13.9-11.7-26.6-20-38.7c-5.3-7.7-11.2-15-18.1-21.3C86.9,181.8,86.8,181.7,86.8,181.6z"/>
</g>
</svg>
