<?xml version="1.0" encoding="utf-8"?>
<!-- Generator: Adobe Illustrator 19.0.0, SVG Export Plug-In . SVG Version: 6.00 Build 0)  -->
<svg version="1.1" id="vorlagepfeil_xA0_Image_1_" xmlns="http://www.w3.org/2000/svg" xmlns:xlink="http://www.w3.org/1999/xlink"
	 x="0px" y="0px" viewBox="0 0 123.4 132.7" style="enable-background:new 0 0 123.4 132.7;" xml:space="preserve">
<style type="text/css">
	.st0{fill:#907B5C;}
</style>
<g>
	<path class="st0" d="M79.6,27.9c2.9,15.2,8.4,29.1,18.7,41c-10.2,11.8-15.8,25.7-18.7,41c1.9,0,3.6,0,5.2,0c1-3.8,1.9-7.5,3.1-11.2
		c3.4-10.9,8.8-20.6,16.8-28.8c0.6-0.6,0.6-1.2,0-1.8c-9-9.2-14.6-20.4-18-32.7c-0.7-2.4-1.2-4.9-1.8-7.4
		C83.2,27.9,81.5,27.9,79.6,27.9z"/>
	<path class="st0" d="M55.6,65.9c1.6-1.5,3.4-2.8,5-4.3c4.5-4.3,6.7-9.8,7.4-16c0.1-1.2,1-2,2.3-2c1.3,0,2,0.8,2.2,2
		c0.4,2.1,0.7,4.2,1.3,6.2c1.9,6,5.8,10.5,10.9,14c1.3,0.9,1.4,2.4,0.2,3.3C83,70.6,81,72,79.3,73.6c-3.9,3.6-5.9,8.2-6.7,13.3
		c-0.2,1.5-0.8,2.1-2.3,2.1c-1.4,0-2.1-0.7-2.3-2.1c-1.1-7.9-5.4-13.6-12.2-17.7c-0.6-0.3-0.9-1-1.5-1.7
		C54.8,66.9,55.1,66.3,55.6,65.9z M70.2,76.8c2.2-3.7,4.5-7.2,8.5-9.1c-4-2.3-6.3-6.1-8.5-10.2c-2,4-4.4,7.6-8.3,10.2
		C65.7,69.8,68.2,73,70.2,76.8z"/>
</g>
</svg>
