<?xml version="1.0" encoding="utf-8"?>
<!-- Generator: Adobe Illustrator 19.0.0, SVG Export Plug-In . SVG Version: 6.00 Build 0)  -->
<svg version="1.1" id="Layer_1" xmlns="http://www.w3.org/2000/svg" xmlns:xlink="http://www.w3.org/1999/xlink" x="0px" y="0px"
	 viewBox="0 0 440 200" style="enable-background:new 0 0 440 200;" xml:space="preserve">
<style type="text/css">
	.st0{fill:#363434;}
	.st1{fill:#C1A676;}
</style>
<g id="XMLID_159_">
	<path id="XMLID_96_" class="st0" d="M249.5,54.5c0.1,0,0.2,0,0.2-0.1c-1.7-3.5-4-6.7-6.8-9.4L249.5,54.5z"/>
	<path id="XMLID_95_" class="st0" d="M234.3,88.5"/>
	<path id="XMLID_94_" class="st0" d="M260.9,119.6"/>
	<g id="XMLID_225_">
		<path id="XMLID_93_" class="st0" d="M240,95"/>
		<path id="XMLID_92_" class="st0" d="M239.2,94"/>
	</g>
	<g id="XMLID_222_">
		<line id="XMLID_91_" class="st0" x1="219.1" y1="37.5" x2="219.1" y2="37.6"/>
		<polygon id="XMLID_90_" class="st0" points="220,37.6 218.3,37.5 220,37.5 		"/>
	</g>
	<g id="XMLID_220_">
		<line id="XMLID_89_" class="st0" x1="250.3" y1="55.6" x2="250.2" y2="55.7"/>
	</g>
	<g id="XMLID_214_">
		<path id="XMLID_88_" class="st0" d="M223.2,40.1"/>
		<g id="XMLID_215_">
			<path id="XMLID_87_" class="st0" d="M225.1,35.3l2.8-16.3l-1.7-0.3l-2.8,16.4c0.3,0,0.5,0.1,0.8,0.1
				C224.5,35.2,224.8,35.2,225.1,35.3z"/>
			<path id="XMLID_86_" class="st0" d="M223,36.8l-0.7,3.1l1.7,0.4l0.7-3.3c-0.3,0-0.5-0.1-0.8-0.1C223.7,36.8,223.3,36.8,223,36.8z
				"/>
			<path id="XMLID_85_" class="st0" d="M223.2,35.8L223.2,35.8L223.2,35.8L223.2,35.8C223.2,35.9,223.3,35.8,223.2,35.8L223.2,35.8z
				"/>
		</g>
	</g>
	<g id="XMLID_211_">
		<line id="XMLID_84_" class="st0" x1="220.1" y1="175.8" x2="220.1" y2="197.2"/>
		<rect id="XMLID_83_" x="219.2" y="175.8" class="st0" width="1.7" height="21.4"/>
	</g>
	<g id="XMLID_208_">
		<line id="XMLID_82_" class="st0" x1="220.1" y1="146.6" x2="220.1" y2="174.2"/>
		<rect id="XMLID_81_" x="219.2" y="146.6" class="st0" width="1.7" height="27.6"/>
	</g>
	<line id="XMLID_80_" class="st0" x1="225.1" y1="101.3" x2="229.8" y2="139.5"/>
	<g id="XMLID_204_">
		<line id="XMLID_79_" class="st0" x1="225.1" y1="101" x2="225.1" y2="101.3"/>
		
			<rect id="XMLID_78_" x="224.9" y="100.3" transform="matrix(0.121 0.9927 -0.9927 0.121 298.2372 -134.5418)" class="st0" width="0.3" height="1.7"/>
	</g>
	<g id="XMLID_201_">
		<line id="XMLID_77_" class="st0" x1="215.1" y1="100.7" x2="215" y2="101.3"/>
		
			<rect id="XMLID_76_" x="214.2" y="100.7" transform="matrix(0.9944 0.1055 -0.1055 0.9944 11.8563 -22.1226)" class="st0" width="1.7" height="0.6"/>
	</g>
	<line id="XMLID_75_" class="st0" x1="216.1" y1="89.6" x2="211.5" y2="131.7"/>
	<line id="XMLID_74_" class="st0" x1="172.6" y1="73.2" x2="191.4" y2="70.6"/>
	<g id="XMLID_196_">
		<line id="XMLID_73_" class="st0" x1="187.6" y1="71.1" x2="187.2" y2="71.1"/>
		
			<rect id="XMLID_72_" x="186.5" y="70.9" transform="matrix(0.1435 0.9896 -0.9896 0.1435 230.8475 -124.5524)" class="st0" width="1.7" height="0.4"/>
	</g>
	<line id="XMLID_71_" class="st0" x1="193.4" y1="49.3" x2="182.8" y2="40.7"/>
	<g id="XMLID_192_">
		<line id="XMLID_70_" class="st0" x1="193.9" y1="49.6" x2="193.4" y2="49.3"/>
		
			<rect id="XMLID_69_" x="193.4" y="48.6" transform="matrix(0.7821 0.6232 -0.6232 0.7821 73.0172 -109.9077)" class="st0" width="0.5" height="1.7"/>
	</g>
	<g id="XMLID_189_">
		<line id="XMLID_68_" class="st0" x1="257.7" y1="106.5" x2="249.5" y2="98.4"/>
		
			<rect id="XMLID_67_" x="247.9" y="101.5" transform="matrix(0.7103 0.7039 -0.7039 0.7103 145.5676 -148.8646)" class="st0" width="11.5" height="1.7"/>
	</g>
	<g id="XMLID_186_">
		<line id="XMLID_66_" class="st0" x1="184.1" y1="88.2" x2="171.8" y2="95.1"/>
		
			<rect id="XMLID_65_" x="177.1" y="84.6" transform="matrix(0.4897 0.8719 -0.8719 0.4897 170.7209 -108.3823)" class="st0" width="1.7" height="14.2"/>
	</g>
	<g id="XMLID_183_">
		<line id="XMLID_64_" class="st0" x1="188.4" y1="116.6" x2="183.9" y2="125.2"/>
		
			<rect id="XMLID_63_" x="184.8" y="115.8" transform="matrix(0.8885 0.4589 -0.4589 0.8885 76.0871 -71.7641)" class="st0" width="1.7" height="9.8"/>
	</g>
	<g id="XMLID_180_">
		<line id="XMLID_62_" class="st0" x1="227.5" y1="15.2" x2="228.5" y2="10.1"/>
		
			<rect id="XMLID_61_" x="227.1" y="10.1" transform="matrix(0.9848 0.1739 -0.1739 0.9848 5.6708 -39.4477)" class="st0" width="1.7" height="5.2"/>
	</g>
	<g id="XMLID_172_">
		<path id="XMLID_60_" class="st0" d="M256.1,15.7"/>
		<path id="XMLID_59_" class="st0" d="M238.5,44.9"/>
		<g id="XMLID_173_">
			<path id="XMLID_58_" class="st0" d="M243.6,44.4C243.6,44.4,243.6,44.4,243.6,44.4c-0.8-0.8-1.6-1.5-2.5-2.2l-0.2,0.3l-0.7,1.2
				c0.8,0.6,1.5,1.2,2.2,1.9l0,0v0c2.7,2.6,5.1,6,6.8,9.3c1-0.5,0.5-0.3,1.5-0.7C248.9,50.7,246.5,47.2,243.6,44.4z"/>
			<path id="XMLID_57_" class="st0" d="M225.1,35.3l-0.1,0.9l0,0c0,0,0,0,0,0l0,0l-0.2,0.8c5.1,0.7,9.9,2.7,14,5.7l0.9-1.5
				C235.4,38.1,230.3,36.1,225.1,35.3z"/>
			<path id="XMLID_56_" class="st0" d="M240.6,41.8c0.2,0.1,0.3,0.3,0.5,0.4l15.8-26.1l-1.5-0.9l-15.7,25.9
				C240,41.4,240.3,41.6,240.6,41.8C240.6,41.8,240.6,41.8,240.6,41.8z"/>
			<path id="XMLID_55_" class="st0" d="M239.5,43.2c-0.2-0.2-0.5-0.3-0.7-0.5l-1,1.7l1.5,0.9l0.9-1.5
				C240,43.6,239.7,43.4,239.5,43.2C239.5,43.2,239.5,43.2,239.5,43.2z"/>
		</g>
	</g>
	<g id="XMLID_169_">
		<line id="XMLID_54_" class="st0" x1="250.3" y1="35.1" x2="243" y2="45"/>
		
			<rect id="XMLID_53_" x="245.8" y="33.9" transform="matrix(0.8028 0.5962 -0.5962 0.8028 72.532 -139.1606)" class="st0" width="1.7" height="12.4"/>
	</g>
	<g id="XMLID_166_">
		<line id="XMLID_52_" class="st0" x1="243" y1="45" x2="242.8" y2="45.2"/>
		
			<rect id="XMLID_51_" x="242" y="45" transform="matrix(0.8049 0.5934 -0.5934 0.8049 74.1746 -135.3369)" class="st0" width="1.7" height="0.2"/>
	</g>
	<g id="XMLID_163_">
		<line id="XMLID_50_" class="st0" x1="254.2" y1="40.6" x2="259.9" y2="34.9"/>
		
			<rect id="XMLID_49_" x="256.2" y="33.8" transform="matrix(0.7078 0.7064 -0.7064 0.7078 101.7882 -170.5455)" class="st0" width="1.7" height="8"/>
	</g>
	<line id="XMLID_48_" class="st0" x1="209.2" y1="45.4" x2="198.7" y2="17.5"/>
	<g id="XMLID_160_">
		<line id="XMLID_47_" class="st0" x1="207" y1="39.8" x2="206.5" y2="38.7"/>
	</g>
</g>
<g id="XMLID_120_">
	<g id="XMLID_156_">
		<polygon id="XMLID_46_" class="st0" points="270.8,42.8 250.8,54.3 251.6,55.7 271.6,44.3 		"/>
		<polyline id="XMLID_45_" class="st0" points="248.9,57.2 248.1,55.7 244.6,57.7 245.5,59.2 		"/>
	</g>
	<path id="XMLID_44_" class="st0" d="M253.7,65.8c-0.3-3.4-1.1-6.8-2.3-9.9c-0.1,0-1.5,0.9-1.6,0.9c1.1,2.8,1.9,6.1,2.1,9.1
		L253.7,65.8z"/>
	<g id="XMLID_151_">
		<path id="XMLID_43_" class="st0" d="M242.7,68.3l0,1.7l9.4,0.1l0-1.7h0c0,0,0,0,0,0L242.7,68.3z"/>
		<path id="XMLID_42_" class="st0" d="M252.1,67.3c0,0.2,0,0.8,0,1l1.8,0c0-0.3,0-0.8,0-1.1L252.1,67.3z"/>
		<polygon id="XMLID_41_" class="st0" points="254.9,68.4 254,68.4 254,68.9 253.9,70.1 285.3,70.5 285.3,68.8 		"/>
	</g>
	<g id="XMLID_148_">
		<path id="XMLID_40_" class="st0" d="M253.6,72.5c0.1-0.8,0.2-1.6,0.2-2.4l-1.7,0c0,0.7-0.1,1.5-0.2,2.2L253.6,72.5z"/>
		<polygon id="XMLID_39_" class="st0" points="255.4,72.8 255.2,74.5 266.3,75.8 266.5,74.1 		"/>
	</g>
	<g id="XMLID_144_">
		<polygon id="XMLID_38_" class="st0" points="247.8,84.6 247.8,84.6 245.8,83.2 244.8,84.6 246.8,86.1 		"/>
		<path id="XMLID_37_" class="st0" d="M249.3,85.6c2-3.5,3.4-7.4,4.1-11.4l-1.7-0.2c-0.6,3.8-1.9,7.3-3.8,10.6L249.3,85.6z"/>
		<polygon id="XMLID_36_" class="st0" points="250,86.2 249,87.6 266.6,100.2 267.6,98.8 		"/>
	</g>
	<g id="XMLID_140_">
		<path id="XMLID_35_" class="st0" d="M241.2,95.1c2.8-2.3,5.2-4.9,7.2-7.9l-1.4-1c-1.9,2.9-4.2,5.4-6.9,7.6L241.2,95.1z"/>
		<polygon id="XMLID_34_" class="st0" points="239.5,93.3 235,87.9 233.6,89.1 238.2,94.4 		"/>
		<polygon id="XMLID_33_" class="st0" points="241.7,95.8 240.3,96.9 260.2,120.2 261.5,119.1 		"/>
	</g>
	<path id="XMLID_32_" class="st0" d="M238.3,97.2c0.5-0.3,0.9-0.6,1.4-1l-1.1-1.3c-0.4,0.3-0.9,0.6-1.3,0.9L238.3,97.2z"/>
	<path id="XMLID_31_" class="st0" d="M236.8,98.1l-0.9-1.5c-3.4,1.9-7.1,3.2-10.9,3.8c-1.3,0.2-2.7,0.3-4.1,0.3v1.8h-1.7v41.8h1.7
		v-41.9c1.1,0,2.3-0.1,3.4-0.3l4.6,37.4l1.7-0.2l-4.6-37.4C229.8,101.3,233.5,100,236.8,98.1z"/>
	<polygon id="XMLID_30_" class="st0" points="195.1,92.2 179.8,111.9 181.1,113 196.4,93.4 	"/>
	<path id="XMLID_29_" class="st0" d="M188.1,71.9l3.4-0.5l-0.2-1.7l-3.3,0.5c0-0.5,0-1,0-1.5c0-0.2,0-0.3,0-0.5l-1.7,0
		c0,0.2,0,0.3,0,0.5c0,0.5,0,1.1,0.1,1.7l-13.7,2l0.2,1.7l13.6-1.9c0.7,7.3,3.9,14.2,9,19.7l1.1-1.3
		C191.7,85.3,188.8,78.8,188.1,71.9z"/>
	<g id="XMLID_131_">
		<polygon id="XMLID_28_" class="st0" points="189.1,54.9 162.8,40.8 162,42.4 188.4,56.4 		"/>
		<path id="XMLID_27_" class="st0" d="M195.7,45.3c-0.8,0.9-1.6,1.8-2.4,2.7l-10-8l-1.1,1.4l10.1,8c-1.2,1.7-2.2,3.5-3,5.3l1.5,0.9
			c0.9-2.1,2.1-4,3.4-5.9c0,0,0,0,0,0c0.8-1.1,1.7-2.2,2.7-3.2L195.7,45.3z"/>
		<polygon id="XMLID_26_" class="st0" points="190.9,55.8 190.2,57.4 199.5,62.4 200.3,60.8 		"/>
		<path id="XMLID_25_" class="st0" d="M190,57.4l-1.5-0.8c-1.2,3.1-1.9,6.4-2.2,9.8l-26.4-0.1l0,1.7l26.4,0.1l0-1.7l1.8,0
			C188.3,63.3,188.9,60.3,190,57.4z"/>
	</g>
	<g id="XMLID_126_">
		<path id="XMLID_24_" class="st0" d="M218.3,36.7l0-1.7c-3.8,0.2-7.6,1-11.1,2.5l-7.6-20.3l-1.6,0.6l7.7,20.4
			c-3.2,1.5-6.1,3.5-8.6,5.9l-20.6-23.7l-1.3,1.1l20.6,23.7l1.3-1.1l1.2,1.3c2.4-2.2,5.1-4.1,8.1-5.5l2.2,5.9l1.6-0.6l-2.3-6
			C211.1,37.7,214.6,36.9,218.3,36.7z"/>
		<polygon id="XMLID_23_" class="st0" points="220.1,34.9 220.3,1.1 218.6,1.1 218.4,34.8 		"/>
		<path id="XMLID_22_" class="st0" d="M220.3,34.9v1.7c0.9,0,1.8,0,2.7,0.1l0.2-0.9l0.1-0.8C222.3,35,221.3,34.9,220.3,34.9z"/>
		<polygon id="XMLID_21_" class="st0" points="218.3,36.9 218.3,48 220,48 220.1,36.9 		"/>
	</g>
	<g id="XMLID_121_">
		<path id="XMLID_20_" class="st0" d="M199,92.9c-0.4-0.4-0.8-0.8-1.2-1.1l-1.1,1.3c0.5,0.5,1,0.9,1.5,1.3L199,92.9z"/>
		<polygon id="XMLID_19_" class="st0" points="200.5,94 202.3,90.5 200.8,89.7 199.1,92.9 		"/>
		<polygon id="XMLID_18_" class="st0" points="198.2,94.6 189.2,111.8 190.7,112.6 199.6,95.7 		"/>
		<path id="XMLID_17_" class="st0" d="M220.9,93.3l-1.7,0l0,7.5c-1.1,0-2.3-0.1-3.4-0.3l1.2-10.9l-1.7-0.2l-1.2,10.8
			c-4.9-0.9-9.6-3-13.6-6.1l-0.9,1.5c4.2,3.2,9.1,5.4,14.3,6.3l-3.2,29.6l1.7,0.2l3.2-29.5c1.2,0.2,2.4,0.2,3.6,0.3v-1.8h1.7
			L220.9,93.3z"/>
	</g>
</g>
<path id="XMLID_16_" class="st1" d="M26.4,149v-13.4c0-0.5,0-7.1,0.2-7.9c0,0,0,0,0,0c0.5-1.7,2-2.4,5.7-2.4c0.3,0,0.3-0.9,0.3-1
	c0-0.2-0.1-1-0.4-1H14.1c-0.3,0-0.3,0.6-0.3,1c0,0.3,0.1,1,0.3,1c3.8,0,5.2,0.8,5.6,2.4c0,0,0,0,0,0c0.1,0.8,0.2,7.4,0.2,7.9v34.7
	c0,3.2-1.9,4-5.8,4c-0.3,0-0.3,0.5-0.3,1c0,0.4,0.1,1,0.3,1h18.2c0.3,0,0.3-0.8,0.3-1s-0.1-1-0.3-1c-5.1,0-5.8-1.7-5.8-4V166v-2.3
	c0-2.1,0.3-4,5.8-4h14.6v2.7v7.9c0,2.6-1,4-5.8,4c-0.3,0-0.3,0.6-0.3,1c0,0.4,0.1,1,0.3,1h18.2c0.3,0,0.4-0.8,0.4-1
	c0-0.2-0.1-1-0.4-1c-5.1,0-5.8-1.6-5.8-4v-34.7c0-0.5,0-7.1,0.2-7.9c0,0,0,0,0,0c0.4-1.6,1.8-2.4,5.6-2.4c0.3,0,0.4-0.8,0.4-1
	c0-0.3-0.1-1-0.4-1H41c-0.3,0-0.3,0.6-0.3,1c0,0.3,0.1,1,0.3,1c3.7,0,5.2,0.8,5.6,2.4c0,0,0,0,0,0c0.1,0.8,0.2,7.4,0.2,7.9v9.7v6.6
	v1.7c0,2.2-0.3,4-5.8,4H26.4v-2V149z"/>
<path id="XMLID_116_" class="st1" d="M89.8,166.9c0.1-0.3,1.1-0.3,1.5-0.3c0.4,0,1.6,0,1.5,0.3C90.5,176,86,177.3,80,177.3
	c-6,0-15.1-1.9-15.1-17.3c0-15.5,8.7-17.3,14.6-17.3c6.1,0,13.5,1.9,14,17.1H77.2c-4.5,0-6,1.2-5.7,4c0.8,9.7,4.5,10.7,8.5,10.7
	C84.2,174.5,88,173.6,89.8,166.9z M87,157.6c-0.6-11-3.6-12.9-7.5-12.9c-4,0-7.5,2.4-8.1,13.4c0,0-0.2-0.2,1.3-0.3
	C74.3,157.7,87,157.6,87,157.6z"/>
<path id="XMLID_113_" class="st1" d="M130.7,175.3c0,0.3-0.2,1-0.5,1h-8.1c-1.3,0-2.7-0.3-2.7-3.1c-2.4,3.4-5.8,3.7-7.9,3.7
	c-3.8,0-12.3-0.6-12.3-9.5c0-9,8-10.3,13.9-10.3l1.5-0.1c5.1-0.7,4.7-1.8,4.7-3.9v-0.8c0-6.9-4.2-7.6-6.6-7.6c-4.8,0-6.2,2.5-6.2,4
	c0,0.5,0.1,1,0.1,1.6c0,2.6-2.1,3-3.1,3c-1,0-3-0.6-3-3.7c0-2.4,3.2-6.9,12.1-6.9c4.4,0,12.5,1.2,12.5,9.6v18.1c0,2,0.4,4,4.9,4
	C130.5,174.3,130.7,175,130.7,175.3z M119.4,160.3l-0.2-2c0,0-3.6,0.6-6,0.9c-6.5,0.8-7.8,3.7-7.8,8.2c0,6,4.5,6.7,6.1,6.7
	C114,174,119.4,173.6,119.4,160.3z"/>
<path id="XMLID_111_" class="st1" d="M134.3,176.4c-0.3,0-0.3-0.6-0.3-1c0-0.3,0.1-1,0.3-1c4.5,0,4.9-1.8,4.9-3.9v-21.1
	c0-2.1-0.3-4-4.9-4c-0.3,0-0.3-0.6-0.3-1c0-0.4,0.1-1,0.3-1h8.2c1,0,2.8,0.1,2.7,3.3c1.9-2.6,4.9-4,8.7-4c4.1,0,6.8,2.7,6.8,5.8
	c0,2.4-1.3,3.5-3.1,3.5s-3.1-1-3.1-2.6c0-1,0.4-1.2,0.4-1.9c0-0.9-0.8-1.7-1.9-1.7c-1.6,0-7.7,0.1-7.7,13.5v11.3
	c0,1.9,0.3,3.9,4.9,3.9c0.3,0,0.4,0.7,0.4,1c0,0.4-0.1,1-0.4,1H134.3z"/>
<path id="XMLID_108_" class="st1" d="M234.9,160.1c0-15.6-8.5-17.4-14.1-17.4c-5.5,0-14.6,1.7-14.6,17.3s8.7,17.3,14.4,17.3
	C225.9,177.3,234.9,175.7,234.9,160.1z M220.4,175.2c-3.5,0-8-1.2-8-15.5c0-14.3,5.3-15,8.3-15c3.1,0,7.7,0.8,7.7,15.1
	C228.4,174.1,223.8,175.2,220.4,175.2z"/>
<path id="XMLID_8_" class="st1" d="M325.3,154h-14.8c-0.3,0-0.4,0.5-0.4,1c0,0.6,0.1,1,0.4,1c3.5,0,4.4,1.4,4.4,4v11.9
	c0,0-2.9,2.7-9.9,2.7c-4.9,0-14.4-2.3-14.4-21.4c0-0.3,0-6.3,0-6.5c0.2-18.5,8.1-21.2,14.4-21.2c6.9,0,13.2,3.7,13.2,10.4
	c0,0.3,0.7,0.3,1,0.3c0.4,0,1.1-0.1,1.1-0.3v-7.1c0-3.5-8-5.5-15.3-5.5c-7,0-21.3,1.4-21.6,23.3c0,0.3-0.1,4.8-0.1,6.6
	c0.6,22.7,14.3,23.9,21.7,23.9c11.3,0,15.9-5.3,15.9-5.3V160c0-2.8,1.2-4,4.4-4c0.3,0,0.3-0.8,0.3-1
	C325.7,154.7,325.6,154,325.3,154z"/>
<path id="XMLID_104_" class="st1" d="M360.1,160.1c0,15.5-8.9,17.1-14.4,17.1c-5.6,0-14.4-1.7-14.4-17.3s9.1-17.3,14.6-17.3
	C351.5,142.7,360.1,144.5,360.1,160.1z M353.6,159.9c0-14.4-4.6-15.1-7.7-15.1c-2.9,0-8.3,0.7-8.3,15c0,14.2,4.5,15.5,8,15.5
	C349,175.2,353.6,174.1,353.6,159.9z"/>
<path id="XMLID_5_" class="st1" d="M381.4,174.3c-4.6,0-4.9-2.1-4.9-4v-37.5v-0.6v-9h-11c-0.3,0-0.4,0.6-0.4,1c0,0.3,0.1,1,0.4,1
	c4.7,0,4.9,2.1,4.9,4v3v0.6v37.5c0,1.9-0.3,4-4.8,4c-0.3,0-0.4,0.6-0.4,1c0,0.5,0.1,1,0.4,1h15.7c0.3,0,0.3-0.6,0.3-1
	C381.8,175,381.6,174.3,381.4,174.3z"/>
<path id="XMLID_100_" class="st1" d="M420.2,174.4c-4.6,0-4.9-2.1-4.9-4v-39v-0.6v-7.3h-11c-0.3,0-0.4,0.6-0.4,1c0,0.4,0.1,1,0.4,1
	c4.6,0,4.9,2,4.9,4v1.3v0.6v13c0,0.8-0.8,1.1-1.3,0.7c-1-0.7-3.5-2.5-7.1-2.5c-5.3,0-14.3,1.3-14.3,17.1c0,16.1,8.8,17.3,14.1,17.3
	c3.9,0,6.4-1,8.7-3.7c0,2.8,1.5,3.1,2.7,3.1h8.3c0.3,0,0.4-0.6,0.4-1C420.7,175,420.5,174.4,420.2,174.4z M409.3,159.9
	c0,13.7-5.1,15-8.7,15c-3.3,0-7.6-1-7.6-14.9c0-14.4,4.6-15.4,7.8-15.4c3.5,0,6.6,2.6,8.5,4.3V159.9z"/>
<path id="XMLID_2_" class="st1" d="M254.7,123.2c-3.1,0-10.1,1.1-10.1,10.7l-0.1,2.2l-0.2,9.2v32.1v0.5v0.2c0,6.2,0.4,9.3-4,12.2
	c-0.8,0.6-2.6,0.7-3.2-0.4c-0.4-0.6-0.1-1.5-0.1-2.2c0-1.5-1.4-2.5-2.7-2.5c-1.2,0-3,1-3,3.6c0,4.3,4.9,5.2,9,4.8
	c4.9-0.4,10.4-5.1,10.4-14.7v-1.4V177v-27.7v-1c0,0,0,0,0,0c0.1-1.8,0.8-3.4,5.7-3.4h2.3c0.3,0,0.4-0.8,0.4-1.1c0-0.3-0.1-1-0.4-1
	h-8v-6.6v0v-1.6c0-6.2,0.6-9.3,4.8-9.3c1.2,0,1.9,0.9,1.9,2c0,0.6-0.3,1-0.3,1.7c0,1.5,1.4,2.3,2.7,2.3c1.2,0,2.9-0.6,2.9-3.1
	C262.6,123.9,257.3,123.2,254.7,123.2z"/>
<path id="XMLID_1_" class="st1" d="M182.3,175c-0.3,0.1-1.7,0.5-3.4,0.5c-2.7,0-4.9-1.5-4.9-9.3l0-17.3c0,0,0,0,0,0l0-0.5
	c0,0,0,0,0,0c0.1-1.8,0.8-3.4,5.7-3.4h2.3c0.3,0,0.4-0.8,0.4-1.1c0-0.3-0.1-1-0.4-1h-8v-0.3c0,0,0,0,0,0l0-2.3l0-6.9v-9
	c-0.8-0.3-2.7-0.3-3.2-0.3c-0.2,0-0.8,0-1.4,0h-6.6c-0.3,0-0.4,0.6-0.4,1c0,0.3,0.1,1,0.4,1c3.5,0,4.5,1.1,4.8,2.5c0,0,0,0,0,0
	l0,7.4v4.1v0.3v25.7c0,10.4,5.1,11.6,10.4,11.6c2.3,0,4-0.5,4.3-0.6c0.3-0.1,0.4-0.6,0.4-1.1C182.7,175.6,182.6,174.9,182.3,175z"/>
</svg>
