<?xml version="1.0" encoding="utf-8"?>
<!-- Generator: Adobe Illustrator 19.2.0, SVG Export Plug-In . SVG Version: 6.00 Build 0)  -->
<svg version="1.1" id="Layer_4_xA0_Image_1_" xmlns="http://www.w3.org/2000/svg" xmlns:xlink="http://www.w3.org/1999/xlink"
	 x="0px" y="0px" viewBox="0 0 244.6 244.3" style="enable-background:new 0 0 244.6 244.3;" xml:space="preserve">
<style type="text/css">
	.st0{fill:#C1A676;}
</style>
<path class="st0" d="M244.3,20.4c-0.1,0.4-0.4,0.7-0.4,1.1c0.1,2.7,0.5,5.5,0.2,8.1c-0.2,1.5-0.1,2.9-0.1,4.4c0,3-0.2,6-0.2,9
	c0,2.2,0.1,4.3,0.1,6.5c0,1.9-0.2,3.7-0.2,5.6c0,1.1,0.2,2.2,0.2,3.3c0,1.4-0.2,2.8-0.2,4.2c0,2.7-0.1,5.5,0,8.2
	c0.1,3.6,0.3,7.3,0.3,10.9c0,1.3-0.2,2.5-0.2,3.8c0,1.8,0.1,3.6,0.1,5.4c0,1.3-0.1,2.7-0.1,4c0,2,0,3.9,0,5.9c0,1.7-0.1,3.4-0.1,5.1
	c0,3.2,0.1,6.4,0.2,9.6c0.1,2.5,0.3,5,0.1,7.4c-0.1,1.3-0.2,2.5-0.3,3.8c-0.1,1.7-0.2,3.3-0.2,5c0,0.8,0.2,1.6,0.3,2.5
	c0.1,1.6,0.2,3.1,0.2,4.7c0,2.9-0.2,5.9-0.3,8.8c0,1.2,0.2,2.3,0.3,3.5c0,2.9-0.1,5.9,0,8.8c0,1.6,0.2,3.2,0.1,4.7
	c-0.2,2.4,0,4.8-0.3,7.3c-0.1,0.7,0.2,1.4,0.2,2.1c0,0.7-0.1,1.3-0.1,2c0,1.1,0,2.3,0,3.4c0,2.6,0,5.2,0,7.8c0,0.9,0,1.7,0,2.6
	c0.1,2.6,0.3,5.3,0.3,7.9c0,3.1-0.3,6.3-0.4,9.4c0,0.6,0.2,1.3,0.2,1.9c0,2.4-0.2,4.8-0.2,7.1c0,2.9,0.2,5.7,0.2,8.6
	c0,1.4-0.2,2.7-0.2,4.1c0,1.9,0.2,3.7,0.3,5.6c0,0.4-0.1,0.8-0.2,1.2c-0.1,1.2-0.3,2.4-0.3,3.6c0,2.8-1.6,4.6-4.5,4.7
	c-1.7,0.1-3.4-0.2-5-0.1c-1.1,0.1-2.2-0.4-3.4,0.2c-0.5,0.3-1.3,0-2,0c-1.7-0.1-3.5-0.1-5.2-0.2c-1.6,0-3.2,0-4.7,0
	c-0.8,0-1.5,0.2-2.3,0.2c-1.5,0-3,0-4.5,0c-0.9,0-1.8,0-2.7,0c-3,0-6-0.4-8.9,0c-2,0.2-3.9-0.3-5.8-0.2c-2.1,0.2-4.1,0.2-6.2,0.2
	c-1.4,0-2.8-0.1-4.2-0.2c-0.6,0-1.1,0-1.7,0c-1.8,0.1-3.7,0.3-5.5,0.3c-0.5,0-0.9-0.3-1.4-0.4c-0.2-0.1-0.4-0.1-0.6-0.1
	c-1.6,0.1-3.1,0.3-4.7,0.4c-1.1,0.1-2.2-0.1-3.4-0.1c-1.7,0-3.4,0.1-5.1,0c-1.1,0-2.2-0.1-3.3-0.2c-1.3-0.1-2.6-0.2-3.9-0.2
	c-0.3,0-0.6,0-1,0c-1.8,0.1-3.6,0.3-5.5,0.4c-2.2,0.1-4.4,0.1-6.6,0.1c-3.6-0.1-7.3-0.2-10.9-0.3c-1,0-2,0.1-3,0
	c-1.6,0-3.2-0.2-4.7-0.2c-1.2,0-2.4,0.4-3.7,0.4c-2.9,0.1-5.8,0-8.7,0c-4.1-0.1-8.2-0.2-12.4-0.2c-3.1,0-6.2,0.3-9.3,0.3
	c-1.6,0-3.3-0.3-4.9-0.3c-1.7,0-3.4,0.1-5.2,0.2c-2.9,0-5.9,0-8.8,0c-2.4,0-4.8-0.2-7.2-0.2c-2.9,0-5.8,0.2-8.7,0.2
	c-2,0-4-0.2-6-0.2c-1.7,0-3.3,0.3-5,0.3c-2.4,0-4.9-0.3-7.3-0.5c-0.7,0-1.3-0.2-2-0.1c-3.3,0.4-6.5,0.3-9.8,0.2
	c-1.5,0-2.9,0.2-4.4,0.2c-2.1-0.1-4.2,0-6.3-0.1c-2.3-0.1-4.6-0.1-6.8-0.5c-1.3-0.2-2.8,0.2-3.9-1.1c-0.9-1.1-1.5-2.2-1.5-3.6
	c0-1.4-0.1-2.8-0.2-4.2c0.1-2.1,0.2-4.2,0.2-6.2c0-1.7-0.2-3.5-0.2-5.2c0-1.4,0-2.7,0-4.1c0-1.3,0-2.7,0-4c0-1.2-0.1-2.3,0.2-3.5
	c0.2-0.9-0.1-1.9,0.1-2.8c0.2-1.5,0.3-3-0.1-4.4c-0.2-1-0.6-1.9,0.2-2.8c0.1-0.1,0-0.2,0-0.3c-0.1-3-0.3-6-0.4-9
	c0-1-0.5-2.3-0.1-3.1c1-2.1-0.1-4.4,0.7-6.6c0.3-0.9-0.1-2.1-0.1-3.1c0-1.2,0-2.4-0.1-3.6c0-0.7-0.2-1.5-0.3-2.2
	c-0.3-1.8,0.1-3.5,0.3-5.2c0.1-0.8,0.1-1.6,0.1-2.4c-0.1-0.3-0.3-0.8-0.4-1.3C1,163,1,161.6,1,160.1c0-1.2,0.2-2.3,0.3-3.5
	c0-0.3,0.1-0.6,0-0.8c-1-1.5-0.1-2.9,0.2-4.3c0.1-0.7,0-1.4,0-2.1c0-2,0-4,0-6c0-2.5-0.1-4.9-0.2-7.4c0,0,0,0,0,0
	c0.1-0.1,0.4-0.4,0.4-0.4c-0.8-1.3-0.7-2.6-0.3-4c0.2-0.7-0.2-1.5-0.1-2.2c0.1-1.5,0-3-0.2-4.6c-0.1-1.1,0.2-2.2,0.3-3.3
	c0-0.2,0-0.3,0-0.5c-0.4-1.9-0.7-3.7,0-5.7c0.4-1.1-0.2-2.5-0.2-3.7c0-2.3,0.1-4.6,0.1-6.8c0-0.8-0.3-1.6-0.3-2.4
	C1,99.6,1.3,96.8,1.4,94c0.1-1.5,0.2-3-0.3-4.5C0.7,88.5,1,87.2,1,86c0-0.8-0.1-1.6-0.1-2.4c0-0.1,0.2-0.2,0.4-0.3
	c0,0,0.1,0,0.1,0.1c0,0-0.1,0-0.1,0C1.1,80.8,1,78.4,1,75.9c0-1.9,0.3-3.8,0.3-5.7c0-1.3-0.1-2.7-0.1-4c0-1.1,0.1-2.2,0.1-3.4
	c0-1.4-0.1-2.8-0.1-4.3c0-1.1,0.1-2.2,0.1-3.3c0-1.2-0.2-2.3-0.2-3.5c0-1,0.1-2,0.1-3c0-2.4-0.1-4.8-0.1-7.2c0-2.2-0.1-4.4-0.1-6.7
	c0.1-3,0.2-6.1,0.3-9.1c0-1-0.3-1.9-0.3-2.9c0-0.7,0.4-1.4,0.1-2.2c-0.3-1,0-2.1,0-3.2c0-3-0.1-6.1,0.1-9.1c0.1-1.9-0.4-4.1,1.1-5.7
	c0.5-0.6,1.2-1.1,2-1.3C5.3,1.1,6.4,1,7.4,1c3.8,0.1,7.5,0.3,11.3,0.3c2.6,0,5.2-0.1,7.8-0.1c3.2,0,6.4,0,9.6,0
	c2.1,0,4.3,0.2,6.4,0.2c1.3,0,2.7-0.3,4-0.4c1.4,0,2.8,0.1,4.1,0.1C51.8,1.2,53,1,54.2,1c2.3,0,4.6,0.2,6.9,0.3c0.3,0,0.7,0.1,1,0
	C62.9,1.2,63.7,1,64.5,1c1.9,0,3.8,0,5.7,0c1.7,0,3.4,0.2,5.1,0.2c1.4,0,2.8,0,4.2,0c1.9,0,4,0.4,5.8-0.1c1.9-0.5,3.4,0.7,5.2,0.4
	C92.4,1.2,94.4,1,96.3,1c2.2,0,4.5,0.2,6.7,0.3c0.5,0,0.9-0.1,1.4-0.1c2.6,0,5.3,0.1,7.9,0.1c1.3,0,2.6-0.1,3.9-0.1
	c2.9,0,5.8,0.1,8.8,0.1c0.7,0,1.4-0.3,2.2-0.3c1.5,0,2.9,0.2,4.4,0.2c1.9,0,3.9-0.4,5.8-0.3c2,0,4,0.3,5.9,0.4
	c1.4,0.1,2.8,0.1,4.2,0.1c2.8,0,5.5,0,8.3-0.1c1.5,0,3-0.1,4.6-0.1c1.2,0,2.3,0,3.5,0c1.7,0,3.4-0.1,5.1-0.2c0.3,0,0.5-0.1,0.8,0
	c1.9,0.3,3.9,0.2,5.8,0.1c1.3,0,2.6,0.5,3.8,0.2c1.8-0.4,3.4,0.3,5.1,0.2c1.7-0.1,3.5,0,5.2,0c1.3,0,2.5-0.2,3.8-0.2
	c2.4,0,4.8,0,7.1,0c3.9,0,7.9,0.1,11.8,0.1c2.1,0,4.2-0.2,6.4-0.3c0.6,0,1.3,0.2,1.9,0.2c2,0,3.9,0,5.9,0.1c2,0,3.9,0.1,5.9,0.2
	c2.4,0,4.8,0,7.1,0c1,0.2,1.9,0.5,2.9,0.7c1.6,2,1.4,4.4,1.5,6.8c0,1.6,0.1,3.1,0.1,4.7c0,1.4,0,2.7,0.1,4.1
	C244.1,18.6,244.2,19.5,244.3,20.4z M61.9,59.8c0.4,0.7,1,1.3,1.3,2c0.7,1.5,2.4,2.1,3,3.7c0.2,0.6,0.8,1,1.2,1.5
	c0.7,0.7,1.5,1.3,2.2,2l0,0c0.6,0.5,0.8,1.4,1.8,1.8c0.8,0.3,1.2,1.5,1.8,2.3c1.3,1.5,2.7,3,4,4.5c1.2,1.4,2.1,3.1,3.6,4.2
	c0.5,0.4,1.1,1.1,1.2,1.7c0.3,1.3,1.3,1.8,2.1,2.5c0.7,0.6,1.5,1.1,1.9,1.9c0.5,0.9,0.9,1.7,1.8,2.1c0.4,0.1,0.7,0.4,1,0.7
	c0.9,0.9,1.7,1.9,2.5,2.8c0.5,0.5,0.9,1.1,1.4,1.7c1.7,2,3.5,4.1,5.2,6.1c0.4,0.5,0.7,0.9,1.1,1.4c0.3,0.3,0.4,0.8,0.7,1.1
	c2.4,2.6,5.4,4.6,7,7.8c0.2,0.3,0.8,0.4,1.2,0.6c0.2,0.1,0.4,0.1,0.6,0.1c-0.1,0.3-0.1,0.5-0.2,0.9c1.2-0.2,1.5,0.7,1.9,1.5
	c0.3,0.5,0.6,1,1,1.4c0.8,1,1.7,1.9,2.4,2.9c0.7,0.9,1.1,2,1.9,2.9c1.1,1.2,2.3,2.3,3.5,3.4c1.1,1.1,2.2,1,3.2-0.3
	c0.3-0.4,0.7-0.7,1.1-1.1c0.8-0.7,1.8-1.3,2.3-2.2c0.9-1.6,2.3-2.6,3.5-3.8c0.2-0.1,0.3-0.3,0.4-0.5c0.4-0.6,0.8-1.3,1.3-1.9
	c0.7-0.8,1.4-1.6,2.1-2.4c0.4-0.5,0.5-1.4,1.6-1.1c0.2,0,0.5-0.4,0.7-0.7c0.2-0.2,0.3-0.5,0.4-0.7c0.7-0.8,1.6-1.5,2.2-2.3
	c1-1.3,1.8-2.6,3.4-3.4c0.3-0.1,0.5-0.5,0.7-0.8c0.7-0.8,1.4-1.6,2-2.4c1.1-1.3,2.2-2.6,3.3-3.9c0.7-0.8,1.3-1.7,2.1-2.4
	c1-0.9,2.3-1.4,2.6-2.9c0-0.1,0.2-0.2,0.3-0.2c0.7-0.5,1.4-1,2-1.7c1.3-1.4,2.6-2.8,3.8-4.2c1.6-1.8,3.1-3.5,4.7-5.3
	c0.5-0.5,1-1,1.5-1.6c0.4-0.4,0.8-0.9,1.2-1.3c1.6-1.3,3-2.7,4-4.5c0,0,0.1,0,0.1,0.1c0,0-0.1,0-0.1,0c0.2-0.4,0.2-0.9,0.5-1.1
	c0.7-0.7,1.6-1.3,2.3-2c1.6-1.5,3.2-3,4.6-4.6c1.1-1.3,1.9-2.7,2.9-4.1c0.3-0.4,0.6-0.8,0.9-1.1c1.6-1.5,3.3-2.9,4.9-4.5
	c1.2-1.2,2.3-2.7,3.4-4c1.4-1.5,2.8-3,4.2-4.4c0.3-0.3,0.8-0.5,1.3-0.8c0,0-0.1-0.4,0.1-0.4c0.7-0.3,0.9-0.9,1-1.6
	c0-0.1,0.2-0.3,0.3-0.4c2.3-0.8,3-3.3,4.8-4.7c0.7-0.6,1.2-1.4,1.9-2c1.2-1,2-2.4,3.1-3.6c0.6-0.7,1.5-1.2,2.1-1.9
	c1.6-1.9,3.1-3.8,4.7-5.7c-1.1-0.5-2.3-0.4-3.5-0.3c-2.7,0.2-5.3,0.1-8,0.1c-3.1,0-6.2,0-9.3,0c-2.9,0-5.9,0-8.8,0
	c-1.7,0-3.4,0-5.1,0c-1.6,0-3.1,0-4.7,0c-2.5,0-5-0.1-7.6-0.1c-1,0-2-0.1-2.9-0.1c-2.1,0-4.2,0.1-6.3,0.2c-0.6,0-1.3-0.1-1.9-0.1
	c-1.7,0-3.5,0.2-5.2,0.2c-2.2,0-4.5-0.3-6.7-0.3c-1.9,0-3.9,0.3-5.8,0.3c-1.4,0-2.9-0.1-4.3-0.1c-1,0-1.9,0.2-2.9,0.2
	c-3.5,0-7-0.9-10.5-0.1c-0.1,0-0.3,0-0.5,0c-2,0-3.9-0.2-5.9-0.1c-2.3,0.2-4.6,0.4-6.9,0c-1.1-0.2-2.2,0-3.3,0c-2,0-3.9,0.2-5.9,0.1
	c-1.6-0.1-3.1-0.5-4.6-0.5c-1.9,0-3.7,0.3-5.6,0.3c-2.3,0.1-4.6,0.1-6.9,0.2c-0.1,0-0.2-0.1-0.3-0.1c-3.2,0-6.5-0.1-9.7-0.1
	c-2.3,0-4.6,0.2-6.9,0.2c-2.4,0-4.8-0.1-7.2-0.2c-1.5-0.1-2.9-0.2-4.4-0.2c-2.3,0-4.6,0-6.8,0c-1.4,0-2.9,0.2-4.3,0.2
	c-1.1,0-2.2,0-3.2,0c-1.1,0-2.2,0.2-3.4,0.3c1.4,1.7,2.8,3.2,4.1,4.8c0.7,0.8,1.4,1.5,2.1,2.4c0.8,1,1.5,2,2.3,2.9
	c1.2,1.3,2.7,2.4,3.7,4c0.8,1.3,2.2,2.3,3,3.8c0.5,0.9,1.5,1.4,2.4,2.1c0,0.2,0,0.5,0,0.8c0.3,0.1,0.6,0.1,0.8,0.3
	c0.4,0.4,0.6,0.8,1,1.2c1.6,1.9,3.8,3.2,4.8,5.7c0.1,0.1,0.2,0.2,0.3,0.3c0.9,1,1.7,1.9,2.6,2.9c0.2,0.3,0.6,0.6,0.8,0.6
	C61.6,58.5,61.8,59.1,61.9,59.8c-0.2,0-0.4,0-0.5,0c0,0.1,0,0.1,0,0.2C61.6,59.9,61.8,59.8,61.9,59.8z M27.4,198.9
	c0,0-0.1-0.1-0.1-0.1C27.3,198.9,27.3,198.9,27.4,198.9c-0.1,1.6-0.1,3.2,0,4.8c0,0.9,0.4,1.8,0.3,2.7c-0.3,1.7,0.6,3.6-0.5,5.2
	c0,0.1,0,0.2,0,0.2c0,1-0.1,2.1-0.1,3.1c0,1-0.1,2-0.1,3.1c0,0.6,1.2,1.7,1.8,1.6c1.6-0.1,3.2,0,4.8-0.2c3.6-0.4,7.2,0.3,10.8-0.2
	c1.3-0.2,2.7,0.1,4.1,0.2c0.7,0,1.4,0,2.1,0.1c1.6,0.3,3.2,0.3,4.8,0.1c1.9-0.2,3.7-0.5,5.6-0.5l0,0c0.6,0.8,1.4,0.2,2.1,0.2
	c1.2-0.1,2.6-0.5,3.6-0.1c1.5,0.5,3.1,0.2,4.6,0.4c0.8,0.1,1.6,0,2.4,0.1c0.5,0,1,0.1,1.5,0c1.8-0.1,3.5-0.2,5.3-0.2
	c1.5,0,2.9,0.1,4.4,0.1c2,0,3.9-0.2,5.9-0.3c1.7,0,3.3,0.1,5,0.1c0.4,0,0.9,0,1.3,0c0.7,0.1,1.5,0.4,2.2,0.2c2-0.5,3.9-0.4,5.8-0.2
	c1.5,0.2,3.1,0,4.7,0c0.7,0,1.4-0.1,2.1-0.1c0.4,0,0.9,0.2,1.3,0.1c1.4-0.1,2.8-0.3,4.2-0.3c2.8,0,5.5,0.1,8.3,0.1
	c0.7,0,1.3-0.2,2-0.2c1.8,0.1,3.6,0.4,5.4,0.4c0.9,0,1.7-0.2,2.6-0.2c1.5,0,3,0,4.5,0c1,0,2,0.2,3,0.2c1.4,0,2.7-0.1,4.1-0.1
	c2-0.1,4-0.1,6-0.2c0.3,0,0.5,0.1,0.8,0.1c1.4,0,2.9,0,4.3,0c0.5,0,1.1-0.1,1.6-0.1c1.6,0.1,3.2,0.2,4.8,0.3c1.8,0.1,3.6-0.2,5.4,0
	c2,0.3,4.2,0,6.2-0.1c0.9,0,1.8-0.4,2.6-0.4c1.6,0.1,3.3,0.3,4.9,0.5c1.6,0.2,3.1-0.6,4.8-0.3c0.9,0.2,2.2,0.4,3.4-0.1
	c0.3-0.1,0.7,0.1,1.1,0.2c1.2,0.3,2.5-0.4,3.7,0.4c0,0,0.2-0.2,0.4-0.3c0.5-0.1,1-0.4,1.5-0.3c1.2,0.2,2.3,0.5,3.6,0.3
	c0.9-0.2,1.8-0.4,2.7-0.3c1.4,0,2.9,0.3,4.3,0.3c2.3,0,4.6-0.2,6.9-0.2c1.1,0,1.4-0.6,1.5-1.4c0.1-1.2,0.2-2.5,0.2-3.7
	c0-1.1-0.2-2.3-0.2-3.4c0.1-2.9,0.3-5.8,0.3-8.7c0.1-3.4,0-6.8,0-10.3c0-1.1,0.2-2.3,0.2-3.4c0-1.3-0.2-2.5-0.2-3.8
	c0-1.2,0.3-2.4,0.3-3.5c0-1.1-0.3-2.2-0.3-3.3c0-9.4,0-18.8,0-28.1c0-3.1,0-6.1,0-9.2c0-3.8-0.1-7.6-0.1-11.4
	c0-3.6,0.1-7.2,0.1-10.8c0-2,0-3.9,0-5.9c0-1.9-0.3-3.7,0-5.6c0.2-1.1,0-2.2,0-3.3c0-3.8,0-7.5,0-11.3c0-2.4,0-4.8,0-7.1
	c0-3.3-0.1-6.7,0-10c0-3.2,0.1-6.3,0.1-9.5c0-3.5-0.2-7-0.2-10.5c0-2.7,0.1-5.4,0.2-8.2c0.1-2.4-0.5-4.8,0.4-7.1c0-0.1,0-0.2,0-0.3
	c-0.1-0.8-0.3-1.7-0.3-2.5c-0.1-1,0-2.1,0-3.3c-0.8,0.7-1.5,1.2-2.1,1.8c-0.8,0.8-1.6,1.6-2.4,2.5c-1.4,1.6-2.8,3.2-4.2,4.9
	c0,0-0.1,0-0.1,0.1c-0.8,0.9-1.9,1.5-2.3,2.8c-0.2,0.7-0.7,1.4-1.3,1.8c-1.7,1.1-3.1,2.5-4.4,4c-1.2,1.4-2.4,2.8-3.6,4.2
	c-0.2,0.3-0.7,0.4-0.8,0.7c-0.5,1.6-1.9,2.2-3.2,2.9c-0.7,0.4-1.8,1-1.9,1.6c-0.3,1.7-1.3,3-2.4,4.1c-0.6,0.6-1.4,1.1-2,1.6
	c-0.9,0.9-1.8,1.9-2.7,2.8c-0.2,0.2-0.6,0.2-0.8,0.2c0,0.6-0.3,1.2-0.6,1.7c-0.5,0.6-1.1,1.1-1.6,1.7c-0.6,0.9-1.4,1.6-2.2,2.2
	c-0.4,0.3-0.8,0.6-1.2,0.9c0.3,0.7-0.1,1.9-0.9,2.1c-0.8,0.1-1.2,0.4-1.4,1.2c-0.1,0.2-0.3,0.5-0.5,0.6c-0.7,0.5-1.5,1-2.1,1.6
	c-0.7,0.8-1.3,1.7-2,2.5c-0.4,0.5-1.2,0.7-1.3,1.2c-0.3,1.4-1.5,1.7-2.4,2.4c-0.1,0.1-0.3,0.1-0.4,0.2c-1.2,1.5-2.3,3-3.6,4.4
	c-1.2,1.4-2.3,2.8-3.7,3.9c-0.7,0.6-1.1,1-0.6,1.8c-0.4,0.1-0.8,0.2-1,0.4c-2,1.9-3.9,3.9-5.9,5.9c-0.4,0.4-0.8,1-1.2,1.4
	c-0.1-0.1-0.2-0.3-0.3-0.4c0,0-0.1,0.1-0.1,0.1c0.1,0.1,0.2,0.2,0.4,0.3c-0.1,0.2-0.1,0.4-0.2,0.6c-0.1,0.9-0.3,1.7-1.5,1.7
	c-0.4,0-0.8,0.7-1.2,1.1c-0.4,0.4-0.6,1-1,1.4c-0.3,0.3-0.9,0.5-1.2,0.8c-1.5,1.6-2.9,3.2-4.3,4.8c-0.5,0.6-0.8,1.2-1.4,1.8
	c-1.3,1.3-2.6,2.5-3.9,3.7c-0.2,0.2-0.3,0.5-0.3,0.7c0.3,0.9-0.4,1.1-1,1.5c-0.8,0.5-1.8,1-2.2,1.7c-0.3,0.8-0.9,1.1-1.4,1.6
	c-0.9,0.9-2.1,1.4-2.7,2.6c-0.4,0.9-1,1.8-1.7,2.5c-1.4,1.5-2.9,2.9-4.3,4.3c-1,1-2.6,1.3-3.6,0.3c-1.2-1.1-2.2-2.4-3.3-3.6
	c-1.1-1.2-2.1-2.5-3.2-3.7c-0.8-0.8-2-1.4-1.9-2.8c-0.4,0.1-1.1,0.2-1.1,0.1c-0.2-0.8-0.9-1.3-1.4-1.8c-0.3-0.3-0.5-0.8-0.8-1.1
	c-1.1-1.2-2.4-2.3-3.5-3.5c-0.9-1-1.4-2.3-2.3-3.2c-0.9-0.8-1.1-2.3-2.6-2.5l0,0c-0.3-0.3-0.7-0.7-1-1c-0.2,0-0.2-0.4-0.3-0.6
	c-0.8-1.2-1.6-2.4-2.4-3.5c-0.2-0.2-0.5-0.4-0.8-0.5c-1.4-0.5-2.5-1.2-2.8-2.8c-0.1-0.5-0.3-1.2-0.6-1.5c-1.6-1.3-3.2-2.5-4.3-4.3
	c-1.9-2.9-5-4.7-6.6-7.8c0-0.1-0.2-0.1-0.3-0.2c-0.7-0.8-1.4-1.5-2.1-2.3c-0.3-0.1-0.8-0.2-1.1-0.5c-0.3-0.2-0.5-0.4-0.7-0.7
	c0,0,0,0,0,0c-0.1-0.5,0-1.1-0.2-1.4c-0.6-0.7-1.3-1.3-2-1.9c-0.5-0.4-1-0.8-1.5-1.2c-0.1-0.1-0.1-0.2-0.1-0.3
	c-0.4-0.9-0.8-1.9-1.3-2.8c-0.3-0.6-0.8-1.1-1.3-1.6c-1.2-1.1-2.5-2.1-3.7-3.2c-0.4-0.4-0.9-0.7-1.2-1.2c-0.7-1.1-1.1-2.3-2.3-3.1
	c-0.9-0.6-1.5-1.7-2.2-2.5c-1.2-1.3-2.3-2.7-3.5-4c-0.4-0.5-1-0.9-1.5-1.4c-0.2-0.3-0.2-0.9-0.4-1c-2.2-0.9-2.9-3.1-4.3-4.7
	c-0.5-0.5-1-0.9-1.6-1.3c-0.4-0.3-0.9-0.6-1.4-0.9c0.1-0.1,0.1-0.2,0.2-0.3c-0.3,0-0.6,0.1-1,0.1c0.1-0.1,0.2-0.2,0.3-0.2
	c-0.2-0.4-0.2-0.8-0.5-1.2c-0.5-0.7-1.5-1.1-1.7-1.9c-0.4-1.3-1.2-2-2.1-2.9c-1.6-1.5-3.4-2.8-4.4-4.9c-0.7-1.4-2.1-2.5-3.1-3.7
	c-0.8-0.9-1.5-1.8-2.3-2.7c-0.6-0.7-2-1.1-1.1-2.4c0,0,0-0.2-0.1-0.2c-0.5-0.5-0.9-1.3-1.9-1.3c-0.3,0-0.7-0.2-0.9-0.4
	c-0.5-0.5-0.9-1.1-1.3-1.6c-0.2,2.6-0.2,5,0,7.4c0.2,2-0.7,4.1,1,5.8c0.6,0.6,1,1.6,1.7,1.9c0.8,0.4,1.2,1,1.4,1.7
	c0.4,1,0.8,1.7,1.8,2.2c0.7,0.4,1.2,1,1.7,1.6c0.9,1,1.8,2.1,2.7,3.2c1.2,1.4,2.3,2.9,3.5,4.3c1.2,1.3,2.2,2.9,3.7,3.8
	c1.1,0.7,1.9,1.7,2.8,2.6c1.5,1.8,2.9,3.7,4.4,5.5c0.5,0.6,1.6,1.1,1.6,1.6c-0.2,1.3,0.8,1.1,1.3,1.6c0.3,0.2,0.6,0.7,0.9,1
	c0.8,0.8,1.5,1.5,2.3,2.3c0.5,0.5,1,1.1,1.4,1.7c1.1,1.2,2,2.5,3.2,3.6c0.8,0.8,1.7,1.4,2.2,2.5c0.4,0.9,1.2,1.8,1.9,2.5
	c1,1.2,2.3,2.2,3.1,3.5c0.7,1.1,1.8,1.8,2.6,3c0.8,1.3,2.2,2.2,3.2,3.3c0.2,0.3,0.4,0.6,0.5,1c1-0.7,1.1,0.6,1.8,0.7l0,0
	c0.8,1.1,1.4,2.4,2.3,3.4c1.9,2,3.5,4.4,5.6,6.3c1.7,1.6,3.3,3.4,4.5,5.4c1,1.6,3,2.3,3.6,4.2c1.8,0.6,2.2,2.6,3.4,3.7
	c0.8,0.8,2.1,1.2,2.3,2.6c1.2,0.1,1.5,1.2,2.2,1.9c0.5,0.5,0.9,1.1,1.5,1.7c0.5,0.5,1.1,0.8,1.6,1.4c1,1.2,1.9,2.5,2.9,3.7
	c0.5,0.6,0.9,1.2,1.5,1.8c0.2,0.3,0.6,0.5,0.9,0.7c0.8,0.7,1.7,1.4,2.4,2.2c0.3,0.4,0.4,0.9,0.6,1.4c0.1,0.3,0.1,0.6,0.2,0.9
	c0.2,0.6,0.5,1.2,0.7,1.8c0.2,0.9-0.8,3.2-1.5,3.3c-1.1,0.2-2.3,0.7-3.4,0c-1.2-0.7-2.7-1.2-3.7-2.2c-1.4-1.3-2.4-2.9-3.6-4.4
	c-0.5-0.6-1-1.1-1.5-1.6c-0.6-0.6-1.3-1.2-1.8-1.9c-1-1.2-1.7-2.7-3.2-3.6c-1.4-0.9-2.7-2.2-2.9-3.8c-0.7-0.4-1.3-0.7-1.6-1.1
	c-1.1-1.2-2-2.6-3.1-3.8c-0.8-0.9-1.6-1.8-2.5-2.7c-0.3-0.3-0.8-0.4-1-0.7c-0.7-0.9-1.3-1.8-2.1-2.7c-0.4-0.6-1-1-1.5-1.5
	c-0.5-0.6-1-1.1-1.5-1.7c-0.3-0.3-0.5-0.7-0.8-1c-0.7-0.8-1.6-1.6-2.3-2.5c-0.9-1.1-1.5-2.7-2.7-3.4c-1.2-0.7-1.8-1.8-2.5-2.8
	c-1.4-1.9-3.2-3.3-4.6-5.1c-0.8-1-1.9-1.9-2.8-2.9c-0.4-0.4-1.1-0.6-1.2-1c-0.6-1.6-2-2.1-2.9-2.9C58.9,94,59,93.4,58.7,93
	c-0.5-0.7-1.3-1.2-1.9-1.8c-1.2-1.3-2.7-2.5-3.6-4.1c-0.9-1.5-2.1-2.6-3.3-3.8c-1-1-2.2-1.8-3.1-2.9c-1.1-1.5-1.7-3.4-3.4-4.3
	c-1.5-0.9-1.9-2.7-3.3-3.7c-1.8-1.4-3.1-3.4-4.6-5.1c-1.1-1.2-2-2.6-3.1-3.8c-1.3-1.3-2.7-2.5-4-3.7c-0.2-0.2-0.5-0.3-0.8-0.4
	c-0.1,0.3-0.4,0.6-0.4,0.9c-0.1,1.2,0,2.5,0,3.7c0,0.8,0.3,1.7,0.1,2.5c-0.5,1.9-0.1,3.8,0,5.8c0.1,1.2,0,2.4,0,3.6
	c0,1.2-0.1,2.4-0.1,3.7c0,1.8,0.1,3.7,0.1,5.5c0,1.9-0.2,3.8,0,5.7c0.1,1,0.2,1.9-0.2,2.8c-0.1,0.3-0.1,0.7-0.1,1.1
	c0,0.8,0.2,1.5,0.2,2.3c0,1.1-0.2,2.1-0.2,3.1c0,2.1,0.1,4.3,0.2,6.4c0,0.9,0,1.7,0,2.6c0,1.7-0.1,3.4-0.1,5c0,1.5,0.4,3.1,0.3,4.6
	c-0.2,2-0.5,4,0,6.1c0.1,0.4-0.2,1-0.2,1.4c-0.1,0.7-0.1,1.3-0.1,2c0,1.1,0.1,2.2,0.1,3.3c0,0.6,0,1.2,0,1.9
	c-0.1,1.9-0.2,3.8-0.2,5.7c0,1,0.3,2,0.4,3c0.1,0.4,0.2,0.9,0.2,1.3c-0.2,1.7-0.4,3.3-0.7,5l0,0c0.1,0.8,0.2,1.6,0.3,2.5
	c0,0.5,0.1,0.9,0.1,1.4c-0.5,3.3-0.5,6.7-0.2,10c0.1,0.7-0.1,1.3-0.2,2.3c0.1,0.2,0.3,0.7,0.3,1.2c0,2.8-0.1,5.6,0,8.4
	c0.1,1.9,0.2,3.8,0.1,5.6c-0.1,0.8-0.1,1.7-0.1,2.5c0.1,1.5,0.7,3.2,0.2,4.5c-0.8,1.9-0.2,3.7-0.2,5.4
	C27.2,194.2,27.6,196.6,27.4,198.9z M27.2,209.8c0.1,0,0.1,0,0.2,0c0-0.2-0.1-0.3-0.1-0.5c0,0-0.1,0-0.1,0
	C27.1,209.5,27.2,209.6,27.2,209.8z M49,57.4C49.1,57.4,49.1,57.4,49,57.4c0.1-0.1,0.1-0.3,0.1-0.4c0,0-0.1,0-0.1,0
	C49,57.2,49,57.3,49,57.4z"/>
</svg>
